<?xml version="1.0" encoding="utf-8"?>
<!-- Generator: Adobe Illustrator 22.0.1, SVG Export Plug-In . SVG Version: 6.00 Build 0)  -->
<svg version="1.1" id="Camada_1" xmlns="http://www.w3.org/2000/svg" xmlns:xlink="http://www.w3.org/1999/xlink" x="0px" y="0px"
	 viewBox="0 0 220 50" style="enable-background:new 0 0 220 50;" xml:space="preserve">
<style type="text/css">
	.st0{fill:#5EAC24;}
	.st1{fill:#4E901E;}
	.st2{fill:#91DC5A;}
	.st3{fill:#FFBCAB;}
	.st4{fill:#FF9478;}
	.st5{fill:#2488FF;}
	.st6{fill:#ED1C24;}
	.st7{fill:#F1F2F2;}
	.st8{fill:#FF5023;}
	.st9{fill:#00E58D;}
	.st10{fill:#FFFFFF;}
</style>
<g>
	<title>Layer 1</title>
	<g>
		<g id="svg_1">
			<path class="st0" d="M368,294h34v18h-34V294z"/>
			<path class="st1" d="M368,303h34v9h-34V303z"/>
			<path class="st0" d="M368,306v6h6C374,308.7,371.3,306,368,306z"/>
			<path class="st2" d="M402,300v-6h-6C396,297.3,398.7,300,402,300z"/>
			<path class="st2" d="M374,294h-6v6C371.3,300,374,297.3,374,294z"/>
			<path class="st0" d="M396,312h6v-6C398.7,306,396,308.7,396,312z"/>
			<path class="st3" d="M425.4,284.4l-0.8-0.8c-0.4-0.4-0.6-0.9-0.6-1.4V279h-16v3.2c0,0.5-0.2,1-0.6,1.4l-0.8,0.8
				c-0.4,0.4-0.6,0.9-0.6,1.4V297c0,1.1,0.9,2,2,2h2v7c0,1.1,0.9,2,2,2s2-0.9,2-2v2c0,1.1,0.9,2,2,2s2-0.9,2-2v-2c0,1.1,0.9,2,2,2
				s2-0.9,2-2v-1c0,1.1,0.9,2,2,2s2-0.9,2-2v-19.2C426,285.3,425.8,284.8,425.4,284.4z"/>
			<path class="st3" d="M421,305v1c0,0.9-0.6,1.7-1.5,1.9c0.2,0,0.3,0.1,0.5,0.1c0.8,0,1.6-0.5,1.9-1.3
				C421.3,306.3,421,305.7,421,305z"/>
			<path class="st3" d="M411.5,307.9c0.2,0,0.3,0.1,0.5,0.1c0.4,0,0.7-0.1,1-0.3V306C413,306.9,412.4,307.7,411.5,307.9z"/>
			<path class="st3" d="M417,306v2c0,0.9-0.6,1.7-1.5,1.9c0.2,0,0.3,0.1,0.5,0.1c1.1,0,2-0.9,2-2v-0.3
				C417.4,307.4,417,306.7,417,306z"/>
			<path class="st4" d="M425.4,284.4l-0.8-0.8c-0.4-0.4-0.6-0.9-0.6-1.4V279h-1v3.2c0,0.5,0.2,1,0.6,1.4l0.8,0.8
				c0.4,0.4,0.6,0.9,0.6,1.4V305c0,0.9-0.6,1.7-1.5,1.9c0.2,0,0.3,0.1,0.5,0.1c1.1,0,2-0.9,2-2v-19.2
				C426,285.3,425.8,284.8,425.4,284.4z"/>
			<path class="st3" d="M383,290c0-1.1-0.9-2-2-2s-2,0.9-2,2v4h4V290z"/>
			<path class="st3" d="M387,294v-6c0-1.1-0.9-2-2-2s-2,0.9-2,2v6H387z"/>
			<path class="st3" d="M391,294v-4c0-1.1-0.9-2-2-2s-2,0.9-2,2v4H391z"/>
			<path class="st3" d="M395,294v-3c0-1.1-0.9-2-2-2s-2,0.9-2,2v3H395z"/>
			<path class="st5" d="M377,321h-2v8h20v-8h-2H377z"/>
			<path class="st5" d="M406,271v8h2h16h2v-8H406z"/>
			<g>
				<path class="st4" d="M417,308c0,0.9-0.6,1.7-1.5,1.9c0.2,0,0.3,0.1,0.5,0.1c1.1,0,2-0.9,2-2v-10h-1V308z"/>
				<path class="st4" d="M421,298v8c0,0.9-0.6,1.7-1.5,1.9c0.2,0,0.3,0.1,0.5,0.1c1.1,0,2-0.9,2-2v-8H421z"/>
				<path class="st4" d="M413,306c0,0.9-0.6,1.7-1.5,1.9c0.2,0,0.3,0.1,0.5,0.1c1.1,0,2-0.9,2-2v-8h-1V306z"/>
				<path class="st4" d="M410,293c2.2,0,4-1.8,4-4v-1h-1v1c0,1.9-1.3,2.8-3.1,3c-0.5,0.1-0.9,0.5-0.9,1v6.1h1V293z"/>
				<path class="st4" d="M386,288c0-0.9-0.6-1.7-1.5-1.9c0.2,0,0.3-0.1,0.5-0.1c1.1,0,2,0.9,2,2v6h-1V288z"/>
				<path class="st4" d="M390,294v-4c0-0.9-0.6-1.7-1.5-1.9c0.2,0,0.3-0.1,0.5-0.1c1.1,0,2,0.9,2,2v4H390z"/>
				<path class="st4" d="M394,294v-3c0-0.9-0.6-1.7-1.5-1.9c0.2,0,0.3-0.1,0.5-0.1c1.1,0,2,0.9,2,2v3H394z"/>
				<path class="st4" d="M382,290c0-0.9-0.6-1.7-1.5-1.9c0.2,0,0.3-0.1,0.5-0.1c1.1,0,2,0.9,2,2v4h-1V290z"/>
			</g>
			<path class="st6" d="M385,306c-1.2,0-2-0.6-2-1c0-0.6-0.4-1-1-1s-1,0.4-1,1c0,1.4,1.3,2.6,3,2.9v1.1c0,0.6,0.4,1,1,1s1-0.4,1-1
				v-1.1c1.7-0.3,3-1.5,3-2.9c0-1.7-1.8-3-4-3c-1.2,0-2-0.6-2-1s0.8-1,2-1s2,0.6,2,1c0,0.6,0.4,1,1,1s1-0.4,1-1c0-1.4-1.3-2.6-3-2.9
				V297c0-0.6-0.4-1-1-1s-1,0.4-1,1v1.1c-1.7,0.3-3,1.5-3,2.9c0,1.7,1.8,3,4,3c1.2,0,2,0.6,2,1S386.2,306,385,306z"/>
			<path class="st7" d="M392,304h2c0.6,0,1-0.4,1-1s-0.4-1-1-1h-2c-0.6,0-1,0.4-1,1S391.4,304,392,304z"/>
			<path class="st7" d="M378,304h-2c-0.6,0-1-0.4-1-1s0.4-1,1-1h2c0.6,0,1,0.4,1,1S378.6,304,378,304z"/>
			<path class="st8" d="M385,281c0.6,0,1-0.4,1-1v-2c0-0.6-0.4-1-1-1s-1,0.4-1,1v2C384,280.6,384.4,281,385,281z"/>
			<path class="st8" d="M379.6,281.7c0.3,0.5,0.9,0.6,1.4,0.4c0.5-0.3,0.6-0.9,0.4-1.4c0,0,0,0,0,0l-1-1.7c-0.3-0.5-0.9-0.6-1.4-0.4
				c-0.5,0.3-0.6,0.9-0.4,1.4c0,0,0,0,0,0L379.6,281.7z"/>
			<path class="st8" d="M375,284.4l1.7,1c0.5,0.3,1.1,0.1,1.4-0.4s0.1-1.1-0.4-1.4c0,0,0,0,0,0l-1.7-1c-0.5-0.3-1.1-0.1-1.4,0.4
				S374.5,284.1,375,284.4C375,284.4,375,284.4,375,284.4z"/>
			<path class="st8" d="M389,282.1c0.5,0.3,1.1,0.1,1.4-0.4l1-1.7c0.3-0.5,0.1-1.1-0.4-1.4s-1.1-0.1-1.4,0.4c0,0,0,0,0,0l-1,1.7
				C388.4,281.2,388.5,281.8,389,282.1z"/>
			<path class="st8" d="M392.8,285.5c0.2,0,0.3,0,0.5-0.1l1.7-1c0.5-0.3,0.6-0.9,0.4-1.4c-0.3-0.5-0.9-0.6-1.4-0.4c0,0,0,0,0,0
				l-1.7,1c-0.5,0.3-0.6,0.9-0.4,1.4C392.1,285.3,392.4,285.5,392.8,285.5z"/>
			<path class="st7" d="M391,324h-1c-0.6,0-1,0.4-1,1s0.4,1,1,1h1c0.6,0,1-0.4,1-1S391.6,324,391,324z"/>
			<path class="st7" d="M421,276h1c0.6,0,1-0.4,1-1s-0.4-1-1-1h-1c-0.6,0-1,0.4-1,1S420.4,276,421,276z"/>
			<path class="st3" d="M381,309.8c0-0.5-0.2-1-0.6-1.4L379,307v-2c0-1.1-0.9-2-2-2s-2,0.9-2,2v9.2c0,0.5,0.2,1,0.6,1.4l0.8,0.8
				c0.4,0.4,0.6,0.9,0.6,1.4v3.2h16v-3.2c0-0.5,0.2-1,0.6-1.4l0.8-0.8c0.4-0.4,0.6-0.9,0.6-1.4V312h-14V309.8z"/>
			<path class="st4" d="M378,305v2l1.4,1.4c0.4,0.4,0.6,0.9,0.6,1.4v2.2h1v-2.2c0-0.5-0.2-1-0.6-1.4L379,307v-2c0-1.1-0.9-2-2-2
				c-0.2,0-0.3,0-0.5,0.1C377.4,303.3,378,304.1,378,305z"/>
			<path class="st4" d="M394,312v2.2c0,0.5-0.2,1-0.6,1.4l-0.8,0.8c-0.4,0.4-0.6,0.9-0.6,1.4v3.2h1v-3.2c0-0.5,0.2-1,0.6-1.4
				l0.8-0.8c0.4-0.4,0.6-0.9,0.6-1.4V312H394z"/>
		</g>
	</g>
	<g>
		<g id="svg_2">
			<path class="st9" d="M58.3,2.2L58.5,48l-24.1,0.1L34.2,2.3C34.2,2.3,58.3,2.2,58.3,2.2z"/>
			<path class="st9" d="M46.3,2.2l0.2,45.9l-12.1,0.1L34.2,2.3C34.2,2.3,46.3,2.2,46.3,2.2z"/>
			<path class="st9" d="M42.2,2.2l-8,0l0,8.1C38.7,10.3,42.3,6.7,42.2,2.2z"/>
			<path class="st9" d="M50.5,48.1l8,0l0-8.1C54,40,50.5,43.6,50.5,48.1z"/>
			<path class="st9" d="M58.4,10.3l0-8.1l-8,0C50.3,6.7,53.9,10.3,58.4,10.3z"/>
			<path class="st9" d="M34.4,40.1l0,8.1l8,0C42.4,43.6,38.8,40,34.4,40.1z"/>
			<path class="st3" d="M63.8,22.4c1.5,0,2.7-1.2,2.7-2.7c0-1.5-1.2-2.7-2.7-2.7l-5.4,0l0,5.4C58.4,22.4,63.8,22.4,63.8,22.4z"/>
			<path class="st3" d="M58.4,27.8l8,0c1.5,0,2.7-1.2,2.7-2.7c0-1.5-1.2-2.7-2.7-2.7l-8,0L58.4,27.8z"/>
			<path class="st3" d="M58.5,33.2l5.4,0c1.5,0,2.7-1.2,2.7-2.7c0-1.5-1.2-2.7-2.7-2.7l-5.4,0L58.5,33.2z"/>
			<path class="st3" d="M58.5,38.6l4,0c1.5,0,2.7-1.2,2.7-2.7c0-1.5-1.2-2.7-2.7-2.7l-4,0L58.5,38.6z"/>
			<path class="st5" d="M22.2,14.5l0-2.7l-10.7,0l0.1,27l10.7,0l0-2.7C22.3,36.1,22.2,14.5,22.2,14.5z"/>
			<path class="st10" d="M42.3,25.2c0-1.6,0.8-2.7,1.3-2.7c0.7,0,1.3-0.6,1.3-1.4c0-0.7-0.6-1.3-1.3-1.3l0,0c-1.9,0-3.4,1.7-3.9,4.1
				l-1.5,0c-0.7,0-1.3,0.6-1.3,1.4c0,0.7,0.6,1.3,1.3,1.3l1.5,0c0.4,2.3,2,4,3.9,4c2.3,0,4-2.4,4-5.4c0-1.6,0.8-2.7,1.3-2.7
				c0.5,0,1.3,1,1.4,2.7s-0.8,2.7-1.3,2.7c-0.7,0-1.3,0.6-1.3,1.4c0,0.7,0.6,1.3,1.3,1.3c1.9,0,3.4-1.7,3.9-4.1l1.5,0
				c0.7,0,1.3-0.6,1.3-1.4c0-0.7-0.6-1.3-1.3-1.3l-1.5,0c-0.4-2.3-2-4-3.9-4c-2.3,0-4,2.4-4,5.4c0,1.6-0.8,2.7-1.3,2.7
				C43.1,27.9,42.3,26.8,42.3,25.2z"/>
			<path class="st10" d="M44.8,34.6l0,2.7c0,0.7,0.6,1.3,1.3,1.3c0.7,0,1.3-0.6,1.3-1.4l0-2.7c0-0.7-0.6-1.3-1.3-1.3
				C45.4,33.3,44.8,33.9,44.8,34.6z"/>
			<path class="st10" d="M45,15.7l0-2.7c0-0.7,0.6-1.4,1.3-1.4c0.7,0,1.3,0.6,1.3,1.3l0,2.7c0,0.7-0.6,1.4-1.3,1.4
				C45.6,17,45,16.4,45,15.7z"/>
			<path class="st7" d="M18.2,33.4l0-1.3c0-0.7-0.6-1.3-1.3-1.3c-0.7,0-1.3,0.6-1.3,1.4l0,1.3c0,0.7,0.6,1.3,1.3,1.3
				C17.7,34.7,18.2,34.1,18.2,33.4z"/>
			<path class="st3" d="M37.2,19.8c0.7,0,1.4-0.3,1.9-0.8l1.9-1.9l2.7,0c1.5,0,2.7-1.2,2.7-2.7c0-1.5-1.2-2.7-2.7-2.7l-12.3,0.1
				c-0.7,0-1.4,0.3-1.9,0.8l-1.1,1.1c-0.5,0.5-1.2,0.8-1.9,0.8l-4.3,0l0.1,21.6l4.3,0c0.7,0,1.4,0.3,1.9,0.8l1.1,1.1
				c0.5,0.5,1.2,0.8,1.9,0.8l2.9,0l-0.1-18.9L37.2,19.8L37.2,19.8z"/>
			<path class="st4" d="M43.6,15.7l-2.7,0l-1.9,1.9c-0.5,0.5-1.2,0.8-1.9,0.8l-2.9,0l0,1.3l2.9,0c0.7,0,1.4-0.3,1.9-0.8l1.9-1.9
				l2.7,0c1.5,0,2.7-1.2,2.7-2.7l0,0c0-0.2,0-0.5-0.1-0.7C45.9,14.9,44.9,15.7,43.6,15.7L43.6,15.7z"/>
			<path class="st4" d="M34.3,37.4l-2.9,0c-0.7,0-1.4-0.3-1.9-0.8l-1.1-1.1c-0.5-0.5-1.2-0.8-1.9-0.8l-4.3,0l0,1.3l4.3,0
				c0.7,0,1.4,0.3,1.9,0.8l1.1,1.1c0.5,0.5,1.2,0.8,1.9,0.8l2.9,0C34.3,38.7,34.3,37.4,34.3,37.4z"/>
		</g>
	</g>
</g>
<g>
	<path class="st5" d="M96.3,45.6l-4-5.4c-1.1,0.2-2.3,0.3-3.3,0.3c-2.8,0-5.4-0.7-7.8-2c-2.3-1.3-4.2-3.2-5.5-5.6
		c-1.4-2.4-2-5.1-2-8c0-3,0.7-5.7,2-8c1.4-2.4,3.2-4.2,5.5-5.5c2.3-1.3,4.9-2,7.8-2c2.9,0,5.5,0.7,7.8,2c2.3,1.3,4.2,3.2,5.5,5.5
		c1.3,2.4,2,5,2,8c0,2.6-0.5,5-1.6,7.2c-1.1,2.2-2.6,4-4.5,5.4l6.8,8H96.3z M83.3,31.4c1.4,1.6,3.3,2.4,5.7,2.4
		c2.4,0,4.3-0.8,5.7-2.4c1.4-1.6,2.1-3.7,2.1-6.4c0-2.7-0.7-4.8-2.1-6.4c-1.4-1.6-3.3-2.4-5.7-2.4c-2.4,0-4.3,0.8-5.7,2.3
		c-1.4,1.6-2.1,3.7-2.1,6.4C81.2,27.7,81.9,29.8,83.3,31.4z"/>
	<path class="st5" d="M116.5,9.9v17.5c0,2,0.5,3.5,1.4,4.6s2.2,1.6,3.9,1.6c1.7,0,3-0.5,3.9-1.6c0.9-1.1,1.4-2.6,1.4-4.6V9.9h7.4
		v17.5c0,2.9-0.6,5.3-1.7,7.2c-1.1,2-2.6,3.4-4.6,4.4c-1.9,1-4.1,1.5-6.6,1.5c-2.4,0-4.6-0.5-6.4-1.5c-1.9-1-3.3-2.5-4.4-4.4
		c-1.1-2-1.6-4.4-1.6-7.3V9.9H116.5z"/>
	<path class="st5" d="M147.6,9.9v30.4h-7.4V9.9H147.6z"/>
	<path class="st5" d="M175.3,9.9v5.8h-8.3v24.6h-7.4V15.8h-8.2V9.9H175.3z"/>
	<path class="st5" d="M186.7,15.8v6.4h10.3v5.5h-10.3v6.8h11.6v5.9h-18.9V9.9h18.9v5.8H186.7z"/>
	<path class="st5" d="M210.6,9.9v30.4h-7.4V9.9H210.6z"/>
</g>
</svg>
