<svg height="512" viewBox="0 0 64 64" width="512" xmlns="http://www.w3.org/2000/svg"><g id="money_&#xB7;_paid_&#xB7;_shopping_&#xB7;_payment_&#xB7;_ecommerce" data-name="money &#xB7; paid &#xB7; shopping &#xB7; payment &#xB7; ecommerce"><path d="m3 26h34v18h-34z" fill="#5eac24"/><path d="m3 35h34v9h-34z" fill="#4e901e"/><path d="m3 38v6h6a6 6 0 0 0 -6-6z" fill="#5eac24"/><path d="m37 32v-6h-6a6 6 0 0 0 6 6z" fill="#91dc5a"/><path d="m9 26h-6v6a6 6 0 0 0 6-6z" fill="#91dc5a"/><path d="m31 44h6v-6a6 6 0 0 0 -6 6z" fill="#5eac24"/><path d="m60.414 16.414-.828-.828a2 2 0 0 1 -.586-1.414v-3.172h-16v3.172a2 2 0 0 1 -.586 1.414l-.828.828a2 2 0 0 0 -.586 1.414v11.172a2 2 0 0 0 2 2h2v7a2 2 0 0 0 4 0v2a2 2 0 0 0 4 0v-2a2 2 0 0 0 4 0v-1a2 2 0 0 0 4 0v-19.172a2 2 0 0 0 -.586-1.414z" fill="#ffbcab"/><path d="m56 37v1a2 2 0 0 1 -1.5 1.929 1.966 1.966 0 0 0 .5.071 1.993 1.993 0 0 0 1.88-1.343 2 2 0 0 1 -.88-1.657z" fill="#ffbcab"/><path d="m46.5 39.929a1.966 1.966 0 0 0 .5.071 1.987 1.987 0 0 0 1-.277v-1.723a2 2 0 0 1 -1.5 1.929z" fill="#ffbcab"/><path d="m52 38v2a2 2 0 0 1 -1.5 1.929 1.966 1.966 0 0 0 .5.071 2 2 0 0 0 2-2v-.277a1.994 1.994 0 0 1 -1-1.723z" fill="#ffbcab"/><path d="m60.414 16.414-.828-.828a2 2 0 0 1 -.586-1.414v-3.172h-1v3.172a2 2 0 0 0 .586 1.414l.828.828a2 2 0 0 1 .586 1.414v19.172a2 2 0 0 1 -1.5 1.929 1.966 1.966 0 0 0 .5.071 2 2 0 0 0 2-2v-19.172a2 2 0 0 0 -.586-1.414z" fill="#ff9478"/><path d="m18 22a2 2 0 0 0 -4 0v4h4z" fill="#ffbcab"/><path d="m22 26v-6a2 2 0 0 0 -4 0v6z" fill="#ffbcab"/><path d="m26 26v-4a2 2 0 0 0 -4 0v4z" fill="#ffbcab"/><path d="m30 26v-3a2 2 0 0 0 -4 0v3z" fill="#ffbcab"/><path d="m12 53h-2v8h20v-8h-2z" fill="#2488ff"/><path d="m41 3v8h2 16 2v-8z" fill="#2488ff"/><g fill="#ff9478"><path d="m52 40a2 2 0 0 1 -1.5 1.929 1.966 1.966 0 0 0 .5.071 2 2 0 0 0 2-2v-10h-1z"/><path d="m56 30v8a2 2 0 0 1 -1.5 1.929 1.966 1.966 0 0 0 .5.071 2 2 0 0 0 2-2v-8z"/><path d="m48 38a2 2 0 0 1 -1.5 1.929 1.966 1.966 0 0 0 .5.071 2 2 0 0 0 2-2v-8h-1z"/><path d="m45 25a4 4 0 0 0 4-4v-1h-1v1c0 1.9-1.323 2.75-3.1 2.951a1 1 0 0 0 -.9.991v6.058h1z"/><path d="m21 20a2 2 0 0 0 -1.5-1.929 1.966 1.966 0 0 1 .5-.071 2 2 0 0 1 2 2v6h-1z"/><path d="m25 26v-4a2 2 0 0 0 -1.5-1.929 1.966 1.966 0 0 1 .5-.071 2 2 0 0 1 2 2v4z"/><path d="m29 26v-3a2 2 0 0 0 -1.5-1.929 1.966 1.966 0 0 1 .5-.071 2 2 0 0 1 2 2v3z"/><path d="m17 22a2 2 0 0 0 -1.5-1.929 1.966 1.966 0 0 1 .5-.071 2 2 0 0 1 2 2v4h-1z"/></g><path d="m20 38c-1.221 0-2-.592-2-1a1 1 0 0 0 -2 0c0 1.421 1.259 2.571 3 2.9v1.1a1 1 0 0 0 2 0v-1.1c1.741-.327 3-1.477 3-2.9 0-1.682-1.757-3-4-3-1.221 0-2-.592-2-1s.779-1 2-1 2 .592 2 1a1 1 0 0 0 2 0c0-1.421-1.259-2.571-3-2.9v-1.1a1 1 0 0 0 -2 0v1.1c-1.741.327-3 1.477-3 2.9 0 1.682 1.757 3 4 3 1.221 0 2 .592 2 1s-.779 1-2 1z" fill="#ed1c24"/><path d="m27 36h2a1 1 0 0 0 0-2h-2a1 1 0 0 0 0 2z" fill="#f1f2f2"/><path d="m13 36h-2a1 1 0 0 1 0-2h2a1 1 0 0 1 0 2z" fill="#f1f2f2"/><path d="m20 13a1 1 0 0 0 1-1v-2a1 1 0 0 0 -2 0v2a1 1 0 0 0 1 1z" fill="#ff5023"/><path d="m14.634 13.706a1 1 0 1 0 1.732-1l-1-1.732a1 1 0 1 0 -1.732 1z" fill="#ff5023"/><path d="m9.974 16.366 1.732 1a1 1 0 1 0 1-1.732l-1.732-1a1 1 0 1 0 -1 1.732z" fill="#ff5023"/><path d="m24 14.072a1 1 0 0 0 1.366-.366l1-1.732a1 1 0 1 0 -1.732-1l-1 1.732a1 1 0 0 0 .366 1.366z" fill="#ff5023"/><path d="m27.8 17.5a.992.992 0 0 0 .5-.134l1.732-1a1 1 0 1 0 -1-1.732l-1.732 1a1 1 0 0 0 .5 1.866z" fill="#ff5023"/><path d="m26 56h-1a1 1 0 0 0 0 2h1a1 1 0 0 0 0-2z" fill="#f1f2f2"/><path d="m56 8h1a1 1 0 0 0 0-2h-1a1 1 0 0 0 0 2z" fill="#f1f2f2"/><path d="m16 41.828a2 2 0 0 0 -.586-1.414l-1.414-1.414v-2a2 2 0 0 0 -4 0v9.172a2 2 0 0 0 .586 1.414l.828.828a2 2 0 0 1 .586 1.414v3.172h16v-3.172a2 2 0 0 1 .586-1.414l.828-.828a2 2 0 0 0 .586-1.414v-2.172h-14z" fill="#ffbcab"/><path d="m13 37v2l1.414 1.414a2 2 0 0 1 .586 1.414v2.172h1v-2.172a2 2 0 0 0 -.586-1.414l-1.414-1.414v-2a2 2 0 0 0 -2-2 1.966 1.966 0 0 0 -.5.071 2 2 0 0 1 1.5 1.929z" fill="#ff9478"/><path d="m29 44v2.172a2 2 0 0 1 -.586 1.414l-.828.828a2 2 0 0 0 -.586 1.414v3.172h1v-3.172a2 2 0 0 1 .586-1.414l.828-.828a2 2 0 0 0 .586-1.414v-2.172z" fill="#ff9478"/></g></svg>